# xmcd
#
# Track frame offsets:
#	150
#	2028
#	15126
#	31791
#	53537
#	71105
#	86678
#	115524
#	129673
#	143729
#	166333
#	183454
#	202183
#	221721
#	246627
#	264944
#	286051
#	299799
#	331942
#
# Disc length: 4779 seconds
#
# Revision: 1
# Processed by: cddbd v1.5.2PL0 Copyright (c) Steve Scherf et al.
# Submitted via: audiograbber 1.83.01
#
DISCID=1612a913
DTITLE=NRPS - 71-11-11 Atlanta Municipal Auditorium, Atlanta GA
DYEAR=1900
DGENRE=
TTITLE0=Intro
TTITLE1=Got Leaving On Her Mind
TTITLE2=I Don't Know You
TTITLE3=Fair Chance to know
TTITLE4=Henry
TTITLE5=Down In The Boondocks
TTITLE6=Garden Of Eden
TTITLE7=Rainbow
TTITLE8=Truck Driving Man
TTITLE9=Portland Woman
TTITLE10=Workingman Blues
TTITLE11=Superman
TTITLE12=Lodi
TTITLE13=Glendale Train
TTITLE14=Sailing Song
TTITLE15=Connections
TTITLE16=Hello Mary Lou
TTITLE17=Last Lonely Eagle
TTITLE18=Willie and The Hand Jive
EXTD=
EXTT0=
EXTT1=
EXTT2=
EXTT3=
EXTT4=
EXTT5=
EXTT6=
EXTT7=
EXTT8=
EXTT9=
EXTT10=
EXTT11=
EXTT12=
EXTT13=
EXTT14=
EXTT15=
EXTT16=
EXTT17=
EXTT18=
PLAYORDER=
